<?xml version="1.0" encoding="utf-8"?>
<?xml-stylesheet type="text/xsl" href="rss1.xsl"?>
<rss version="2.0" xmlns:atom="http://www.w3.org/2005/Atom" xmlns:content="http://purl.org/rss/1.0/modules/content/" xmlns:dc="http://purl.org/dc/elements/1.1/" xmlns:media="http://search.yahoo.com/mrss/">
<channel>
 <title>Getty</title>
 <link>http://www.gettyimg.com/</link>
 <atom:link href="http://www.gettyimg.com/" rel="self" type="application/rss+xml" />

 
                <item>
                <title><![CDATA[【Requests】[REQ VID] - Schmigadoon Season 2 Episode 4]]></title>
                <link><![CDATA[https://sharemania.us/threads/schmigadoon-season-2-episode-4.220744/]]></link>
                <description><![CDATA[<article>
<blockquote class="messageText SelectQuoteContainer ugc baseHtml">
Hi I was wondering if anyone had Schmigadoon Season 2 Episode 4 in 1080p or 4k. I really just want the 5.1 audio so either works thank you!
<div class="messageTextEndMarker">&nbsp;</div>
</blockquote>
</article>]]></description>
                <author><![CDATA[gavinckss]]></author>
                </item>

                
                <item>
                <title><![CDATA[【HD Live Performances】WEB-RiP - Ed Sheeran - Apple Itunes Music Live 2023 4k WEB-DL Dolby-Vision Dolby Digital Plus Atmos 5.1 H.265]]></title>
                <link><![CDATA[https://sharemania.us/threads/ed-sheeran-apple-itunes-music-live-2023-4k-web-dl-dolby-vision-dolby-digital-plus-atmos-5-1-h-265.220745/]]></link>
                <description><![CDATA[<article>
<blockquote class="messageText SelectQuoteContainer ugc baseHtml">
<img src="https://www.apple.com/newsroom/images/product/music/standard/Apple-Music-Live-Ed-Sheeran-with-guitar_big.jpg.slideshow-xlarge_2x.jpg" class="bbCodeImage LbImage" alt="[​IMG]" data-url="https://www.apple.com/newsroom/images/product/music/standard/Apple-Music-Live-Ed-Sheeran-with-guitar_big.jpg.slideshow-xlarge_2x.jpg" style=""> <br>
<img src="https://i.ibb.co/D90JrKN/Ed-Sheeran-Apple-Itunes-Music-Live-2023-4k-WEB-DL-Dolby-Vision-Dolby-Digital-Plus-Atmos-5-1-H-265-mk.jpg" class="bbCodeImage LbImage" alt="[​IMG]" data-url="https://i.ibb.co/D90JrKN/Ed-Sheeran-Apple-Itunes-Music-Live-2023-4k-WEB-DL-Dolby-Vision-Dolby-Digital-Plus-Atmos-5-1-H-265-mk.jpg" style=""> <br>
<div class="ToggleTriggerAnchor bbCodeSpoilerContainer">
<button type="button" class="button bbCodeSpoilerButton ToggleTrigger Tooltip JsOnly" data-target="> .SpoilerTarget"><span>Spoiler: <span class="SpoilerTitle">Media Info</span></span></button>
<div class="SpoilerTarget bbCodeSpoilerText">General<br>
Unique ID : 51727026685029474969797673437498465683 (0x26EA435185B57D58FE6FF36B33A05D93)<br>
Complete name : Ed Sheeran - Apple Itunes Music Live 2023 4k WEB-DL Dolby-Vision Dolby Digital Plus Atmos 5.1 H.265.mkv<br>
Format : Matroska<br>
Format version : Version 4<br>
File size : 12.4 GiB<br>
Duration : 1 h 9 min<br>
Overall bit rate : 25.7 Mb/s<br>
Frame rate : 23.976 FPS<br>
Writing application : mkvmerge v67.0.0 ('Under Stars') 64-bit<br>
Writing library : libebml v1.4.2 + libmatroska v1.6.4<br>
<br>
Video<br>
ID : 1<br>
Format : HEVC<br>
Format/Info : High Efficiency Video Coding<br>
Format profile : Main 10@L5@High<br>
HDR format : Dolby Vision, Version 1.0, dvhe.05.06, BL+RPU<br>
Codec ID : V_MPEGH/ISO/HEVC<br>
Duration : 1 h 9 min<br>
Bit rate : 24.4 Mb/s<br>
Width : 3 840 pixels<br>
Height : 2 160 pixels<br>
Display aspect ratio : 16:9<br>
Frame rate mode : Constant<br>
Frame rate : 23.976 (24000/1001) FPS<br>
Color space : YUV<br>
Chroma subsampling : 4:2:0<br>
Bit depth : 10 bits<br>
Bits/(Pixel*Frame) : 0.123<br>
Stream size : 11.8 GiB (95%)<br>
Language : English<br>
Default : Yes<br>
Forced : No<br>
<br>
Audio<br>
ID : 2<br>
Format : E-AC-3 JOC<br>
Format/Info : Enhanced AC-3 with Joint Object Coding<br>
Commercial name : Dolby Digital Plus with Dolby Atmos<br>
Codec ID : A_EAC3<br>
Duration : 1 h 9 min<br>
Bit rate mode : Constant<br>
Bit rate : 768 kb/s<br>
Channel(s) : 6 channels<br>
Channel layout : L R C LFE Ls Rs<br>
Sampling rate : 48.0 kHz<br>
Frame rate : 31.250 FPS (1536 SPF)<br>
Compression mode : Lossy<br>
Stream size : 380 MiB (3%)<br>
Language : English<br>
Service kind : Complete Main<br>
Default : Yes<br>
Forced : No<br>
Complexity index : 16<br>
Number of dynamic objects : 15<br>
Bed channel count : 1 channel<br>
Bed channel configuration : LFE<br>
<br>
Text #1<br>
ID : 3<br>
Format : UTF-8<br>
Codec ID : S_TEXT/UTF8<br>
Codec ID/Info : UTF-8 Plain Text<br>
Title : English<br>
Language : English<br>
Default : No<br>
Forced : No<br>
<br>
Text #2<br>
ID : 4<br>
Format : UTF-8<br>
Codec ID : S_TEXT/UTF8<br>
Codec ID/Info : UTF-8 Plain Text<br>
Title : English [SDH]<br>
Language : English<br>
Default : No<br>
Forced : No<br>
<br>
Text #3<br>
ID : 5<br>
Format : UTF-8<br>
Codec ID : S_TEXT/UTF8<br>
Codec ID/Info : UTF-8 Plain Text<br>
Title : French<br>
Language : French<br>
Default : No<br>
Forced : No</div>
</div>Ripped by me <img src="styles/default/xenforo/smilies/big_smile-48.png" class="mceSmilie" alt=":)" title="Smile    :)"><br>
<div class="bbCodeBlock bbCodeVfcHH HiddenContent">
<div class="attribution type">Hidden Content:</div>
<blockquote>You must either reply or click 'Like' to see the hidden information contained here.</blockquote>
</div>
<div class="messageTextEndMarker">&nbsp;</div>
</blockquote>
</article>]]></description>
                <author><![CDATA[szymek04sawicki]]></author>
                </item>

                </channel></rss>